<mxfile host="Electron" modified="2024-04-10T02:02:02.211Z" agent="Mozilla/5.0 (Windows NT 10.0; Win64; x64) AppleWebKit/537.36 (KHTML, like Gecko) draw.io/22.1.11 Chrome/114.0.5735.289 Electron/25.9.8 Safari/537.36" etag="huTv3BWHDm_gonjiAS6u" version="22.1.11" type="device">
  <diagram name="Page-1" id="10a91c8b-09ff-31b1-d368-03940ed4cc9e">
    <mxGraphModel dx="2104" dy="744" grid="1" gridSize="10" guides="1" tooltips="1" connect="1" arrows="1" fold="1" page="1" pageScale="1" pageWidth="1100" pageHeight="850" background="none" math="0" shadow="0">
      <root>
        <mxCell id="0" />
        <mxCell id="1" parent="0" />
        <mxCell id="SibxhflnwdYZrCTUnabU-48" value="" style="endArrow=classic;html=1;rounded=0;exitX=0.5;exitY=1;exitDx=0;exitDy=0;entryX=0.5;entryY=0;entryDx=0;entryDy=0;fontSize=16;strokeColor=default;" parent="1" source="m1c16cQEw337gzz9OEIU-12" target="m1c16cQEw337gzz9OEIU-13" edge="1">
          <mxGeometry width="50" height="50" relative="1" as="geometry">
            <mxPoint x="320" y="370" as="sourcePoint" />
            <mxPoint x="320" y="405" as="targetPoint" />
          </mxGeometry>
        </mxCell>
        <mxCell id="8UyY_syBQy0-cX2Jlujq-1" value="AND" style="ellipse;whiteSpace=wrap;html=1;" parent="1" vertex="1">
          <mxGeometry x="-40" y="140" width="120" height="80" as="geometry" />
        </mxCell>
        <mxCell id="8UyY_syBQy0-cX2Jlujq-2" value="word=&quot;把&quot;" style="ellipse;whiteSpace=wrap;html=1;" parent="1" vertex="1">
          <mxGeometry x="-340" y="400" width="120" height="80" as="geometry" />
        </mxCell>
        <mxCell id="8UyY_syBQy0-cX2Jlujq-3" value="word=“变成”" style="ellipse;whiteSpace=wrap;html=1;" parent="1" vertex="1">
          <mxGeometry x="130" y="290" width="120" height="80" as="geometry" />
        </mxCell>
        <mxCell id="m1c16cQEw337gzz9OEIU-1" value="word=&quot;&quot;&lt;br&gt;{0，4}" style="ellipse;whiteSpace=wrap;html=1;" vertex="1" parent="1">
          <mxGeometry x="-40" y="280" width="120" height="80" as="geometry" />
        </mxCell>
        <mxCell id="m1c16cQEw337gzz9OEIU-2" value="word=&quot;被&quot;" style="ellipse;whiteSpace=wrap;html=1;" vertex="1" parent="1">
          <mxGeometry x="-110" y="410" width="120" height="80" as="geometry" />
        </mxCell>
        <mxCell id="m1c16cQEw337gzz9OEIU-3" value="OR" style="ellipse;whiteSpace=wrap;html=1;" vertex="1" parent="1">
          <mxGeometry x="-220" y="280" width="120" height="80" as="geometry" />
        </mxCell>
        <mxCell id="m1c16cQEw337gzz9OEIU-5" value="" style="endArrow=classic;html=1;rounded=0;exitX=0;exitY=1;exitDx=0;exitDy=0;entryX=0.5;entryY=0;entryDx=0;entryDy=0;" edge="1" parent="1" source="m1c16cQEw337gzz9OEIU-3" target="8UyY_syBQy0-cX2Jlujq-2">
          <mxGeometry width="50" height="50" relative="1" as="geometry">
            <mxPoint x="-420" y="410" as="sourcePoint" />
            <mxPoint x="-370" y="360" as="targetPoint" />
          </mxGeometry>
        </mxCell>
        <mxCell id="m1c16cQEw337gzz9OEIU-7" value="" style="endArrow=classic;html=1;rounded=0;exitX=1;exitY=1;exitDx=0;exitDy=0;entryX=0.5;entryY=0;entryDx=0;entryDy=0;" edge="1" parent="1" source="m1c16cQEw337gzz9OEIU-3" target="m1c16cQEw337gzz9OEIU-2">
          <mxGeometry width="50" height="50" relative="1" as="geometry">
            <mxPoint x="-150" y="360" as="sourcePoint" />
            <mxPoint x="-150" y="415" as="targetPoint" />
          </mxGeometry>
        </mxCell>
        <mxCell id="m1c16cQEw337gzz9OEIU-8" value="" style="endArrow=classic;html=1;rounded=0;exitX=0;exitY=1;exitDx=0;exitDy=0;entryX=0.5;entryY=0;entryDx=0;entryDy=0;" edge="1" parent="1" source="8UyY_syBQy0-cX2Jlujq-1" target="m1c16cQEw337gzz9OEIU-3">
          <mxGeometry width="50" height="50" relative="1" as="geometry">
            <mxPoint x="-210" y="250" as="sourcePoint" />
            <mxPoint x="-160" y="200" as="targetPoint" />
          </mxGeometry>
        </mxCell>
        <mxCell id="m1c16cQEw337gzz9OEIU-9" value="" style="endArrow=classic;html=1;rounded=0;exitX=0.5;exitY=1;exitDx=0;exitDy=0;entryX=0.5;entryY=0;entryDx=0;entryDy=0;" edge="1" parent="1" source="8UyY_syBQy0-cX2Jlujq-1" target="m1c16cQEw337gzz9OEIU-1">
          <mxGeometry width="50" height="50" relative="1" as="geometry">
            <mxPoint x="8" y="198" as="sourcePoint" />
            <mxPoint x="-150" y="280" as="targetPoint" />
          </mxGeometry>
        </mxCell>
        <mxCell id="m1c16cQEw337gzz9OEIU-10" value="" style="endArrow=classic;html=1;rounded=0;exitX=1;exitY=1;exitDx=0;exitDy=0;entryX=0.5;entryY=0;entryDx=0;entryDy=0;" edge="1" parent="1" source="8UyY_syBQy0-cX2Jlujq-1" target="8UyY_syBQy0-cX2Jlujq-3">
          <mxGeometry width="50" height="50" relative="1" as="geometry">
            <mxPoint x="50" y="210" as="sourcePoint" />
            <mxPoint x="50" y="290" as="targetPoint" />
          </mxGeometry>
        </mxCell>
        <mxCell id="m1c16cQEw337gzz9OEIU-11" value="ROOT" style="ellipse;whiteSpace=wrap;html=1;" vertex="1" parent="1">
          <mxGeometry x="170" y="30" width="120" height="80" as="geometry" />
        </mxCell>
        <mxCell id="m1c16cQEw337gzz9OEIU-12" value="within" style="ellipse;whiteSpace=wrap;html=1;" vertex="1" parent="1">
          <mxGeometry x="360" y="170" width="120" height="80" as="geometry" />
        </mxCell>
        <mxCell id="m1c16cQEw337gzz9OEIU-13" value="&amp;lt;S&amp;gt;" style="ellipse;whiteSpace=wrap;html=1;" vertex="1" parent="1">
          <mxGeometry x="360" y="320" width="120" height="80" as="geometry" />
        </mxCell>
        <mxCell id="m1c16cQEw337gzz9OEIU-15" value="" style="endArrow=classic;html=1;rounded=0;exitX=1;exitY=1;exitDx=0;exitDy=0;entryX=0.444;entryY=0.029;entryDx=0;entryDy=0;entryPerimeter=0;" edge="1" parent="1" source="m1c16cQEw337gzz9OEIU-11" target="m1c16cQEw337gzz9OEIU-12">
          <mxGeometry width="50" height="50" relative="1" as="geometry">
            <mxPoint x="92" y="218" as="sourcePoint" />
            <mxPoint x="240" y="290" as="targetPoint" />
          </mxGeometry>
        </mxCell>
        <mxCell id="m1c16cQEw337gzz9OEIU-16" value="" style="endArrow=classic;html=1;rounded=0;exitX=0;exitY=1;exitDx=0;exitDy=0;entryX=1;entryY=0;entryDx=0;entryDy=0;" edge="1" parent="1" source="m1c16cQEw337gzz9OEIU-11" target="8UyY_syBQy0-cX2Jlujq-1">
          <mxGeometry width="50" height="50" relative="1" as="geometry">
            <mxPoint x="-180" y="160" as="sourcePoint" />
            <mxPoint x="-130" y="110" as="targetPoint" />
          </mxGeometry>
        </mxCell>
      </root>
    </mxGraphModel>
  </diagram>
</mxfile>
